<svg xmlns="http://www.w3.org/2000/svg" xml:space="preserve" width="800" height="800" viewBox="0 0 512 512"><path d="M109.076 239.189C51.872 232.163 7.575 183.404 7.575 124.299 7.575 60.368 59.402 8.54 123.334 8.54s115.759 51.827 115.759 115.759c0 59.104-44.296 107.863-101.501 114.89z" style="fill:#7cd8a4"/><path d="M285.498 378.761s52.113-20.116 87.361-30.174l30.065-6.304c21.79 0 101.501 36.477 101.501 36.477v124.699H9.505V400.203s52.369-22.005 99.784-38.719l28.301-9.458c17.391-5.412 32.018-9.027 40.067-9.027 32.019 0 98.681 32.765 98.681 32.765z" style="fill:#3eac92"/><path d="m402.924 342.284-30.065 6.304c-35.249 10.058-87.361 30.174-87.361 30.174l-9.157-2.997S209.678 343 177.66 343c-8.049 0-22.676 3.615-40.067 9.027l-28.301 9.458c-47.415 16.714-99.784 38.719-99.784 38.719v52.689s52.369-22.006 99.784-38.719l28.301-9.457c17.391-5.412 32.018-9.028 40.067-9.028 32.019 0 98.681 32.765 98.681 32.765l9.157 2.997s52.113-20.116 87.361-30.174l30.065-6.303c21.79 0 101.501 36.477 101.501 36.477v-52.689s-79.712-36.478-101.501-36.478" style="opacity:.22;fill:#266659"/><path d="M374.408 299.63c-57.206-7.027-101.501-55.785-101.501-114.89 0-63.931 51.827-115.759 115.759-115.759s115.759 51.827 115.759 115.759c0 59.104-44.296 107.863-101.501 114.89z" style="fill:#7cd8a4"/><path d="M442.027 81.995c22.376 21.107 36.347 51.029 36.347 84.218 0 59.104-44.296 107.863-101.501 114.89h-28.516a115 115 0 0 1-39.118-12.152c17.475 16.488 40.078 27.597 65.167 30.679h28.515c57.206-7.027 101.501-55.785 101.501-114.89.003-44.684-25.319-83.45-62.395-102.745M176.696 21.554c22.376 21.107 36.347 51.029 36.347 84.218 0 59.104-44.296 107.863-101.501 114.89H83.027a115 115 0 0 1-39.118-12.152c17.475 16.488 40.078 27.597 65.167 30.679h28.515c57.206-7.027 101.501-55.785 101.501-114.89.001-44.685-25.321-83.45-62.396-102.745" style="fill:#3eac92"/><path d="M448.234 169.938c-5.545-5.545-14.618-5.545-20.163 0l-39.405 39.118-39.405-39.118c-5.545-5.545-14.618-5.545-20.163 0s-5.545 14.619 0 20.163l45.31 44.981V503.46h28.515V235.083l45.31-44.981c5.546-5.546 5.546-14.619.001-20.164M182.903 109.496c-5.545-5.545-14.618-5.545-20.163 0l-39.405 39.118-39.405-39.118c-5.545-5.545-14.618-5.545-20.163 0s-5.545 14.619 0 20.163l45.31 44.981v328.82h28.515V174.641l45.31-44.981c5.546-5.544 5.546-14.619.001-20.164" style="fill:#aa8b65"/><path d="M507.577 371.872c-7.54-3.45-68.76-31.217-97.078-36.348v-29.383C468.817 295.735 512 244.694 512 184.741c0-68.007-55.328-123.334-123.334-123.334s-123.334 55.327-123.334 123.334c0 59.952 43.183 110.994 101.502 121.4v36.31c-31.141 9.202-73.003 25.021-82.218 28.537-38.16-16.39-87.057-35.563-106.955-35.563-6.812 0-17.502 2.113-32.492 6.424V245.7c58.318-10.406 101.501-61.448 101.501-121.401C246.67 56.292 191.342.965 123.336.965S0 56.293 0 124.299C0 184.251 43.183 235.294 101.501 245.7v110.512c-45.65 16.333-94.424 36.796-94.93 37.008a7.575 7.575 0 0 0-4.641 6.983v103.255a7.574 7.574 0 0 0 7.575 7.575h494.918a7.574 7.574 0 0 0 7.575-7.575V378.762a7.57 7.57 0 0 0-4.421-6.89M280.482 184.741c0-59.653 48.531-108.183 108.183-108.183s108.183 48.531 108.183 108.183c0 51.671-36.561 95.794-86.35 105.974v-52.48l43.092-42.779c4.113-4.112 6.377-9.595 6.377-15.438 0-5.842-2.264-11.326-6.376-15.437-4.113-4.113-9.595-6.377-15.438-6.377s-11.326 2.265-15.419 6.358l-34.068 33.819-34.047-33.8c-4.113-4.113-9.595-6.377-15.438-6.377s-11.326 2.265-15.438 6.376c-4.113 4.113-6.377 9.596-6.377 15.438s2.266 11.327 6.398 15.458l43.072 42.76v52.48c-49.792-10.181-86.354-54.304-86.354-105.975M177.66 350.575c24.871 0 116.941 40.772 150.318 56.483 1.043.49 2.14.723 3.221.723a7.58 7.58 0 0 0 6.859-4.351 7.575 7.575 0 0 0-3.627-10.08c-3.525-1.659-14.792-6.928-29.906-13.654 16.054-5.943 41.168-14.979 62.309-21.427v137.616H145.168V357.636c19.344-5.784 28.336-7.061 32.492-7.061M15.151 124.299c0-59.653 48.531-108.183 108.183-108.183s108.183 48.531 108.183 108.183c0 51.671-36.561 95.793-86.35 105.975v-52.48l43.092-42.779c4.113-4.112 6.377-9.595 6.377-15.438 0-5.842-2.265-11.326-6.376-15.437-4.113-4.113-9.595-6.378-15.438-6.378s-11.326 2.266-15.419 6.359l-34.068 33.819-34.047-33.8c-4.113-4.113-9.595-6.378-15.438-6.378s-11.326 2.266-15.439 6.378-6.376 9.595-6.376 15.437c0 5.843 2.265 11.327 6.397 15.458l43.072 42.76v52.48c-49.792-10.182-86.353-54.305-86.353-105.976m1.93 280.958c12.604-5.217 48.897-20.061 84.42-32.941v123.568h-84.42zm99.57 90.628V363.25a7.5 7.5 0 0 0 0-3.551V174.642a7.57 7.57 0 0 0-2.238-5.375l-45.291-44.963c-1.251-1.25-1.939-2.928-1.939-4.725s.689-3.474 1.939-4.725 2.929-1.941 4.726-1.941 3.474.69 4.745 1.959l39.405 39.118a7.573 7.573 0 0 0 10.673 0l39.425-39.137a6.63 6.63 0 0 1 4.726-1.941c1.797 0 3.474.69 4.725 1.94s1.94 2.929 1.94 4.726-.689 3.474-1.92 4.706l-45.311 44.981a7.57 7.57 0 0 0-2.238 5.375v321.242h-13.366v.003zm265.333 0V235.083a7.57 7.57 0 0 0-2.238-5.375l-45.291-44.963a6.63 6.63 0 0 1-1.939-4.725c0-1.797.689-3.474 1.94-4.726a6.63 6.63 0 0 1 4.725-1.939c1.797 0 3.474.689 4.745 1.958l39.405 39.118a7.574 7.574 0 0 0 10.674 0l39.424-39.137a6.63 6.63 0 0 1 4.726-1.94c1.796 0 3.474.689 4.725 1.939a6.63 6.63 0 0 1 1.94 4.726c0 1.797-.689 3.474-1.92 4.706l-45.31 44.981a7.57 7.57 0 0 0-2.238 5.375v260.802h-13.367zm114.865 0h-86.35V350.9c19.388 4.202 58.987 20.409 86.35 32.741z"/></svg>